<?xml version="1.0" encoding="utf-8"?>
<!-- Generator: Adobe Illustrator 14.0.0, SVG Export Plug-In  -->
<!DOCTYPE svg PUBLIC "-//W3C//DTD SVG 1.0//EN" "http://www.w3.org/TR/2001/REC-SVG-20010904/DTD/svg10.dtd" [
	<!ENTITY ns_flows "http://ns.adobe.com/Flows/1.0/">
]>
<svg version="1.0"
	 xmlns="http://www.w3.org/2000/svg" xmlns:xlink="http://www.w3.org/1999/xlink" xmlns:a="http://ns.adobe.com/AdobeSVGViewerExtensions/3.0/"
	 x="0px" y="0px" width="190px" height="190px" viewBox="-37.242 -15.698 190 190" enable-background="new -37.242 -15.698 190 190"
	 xml:space="preserve">
<defs>
</defs>
<path fill="#FFFFFF" d="M74.458,10.802c2.8,0,5.1,2.3,5.1,5.1c0,2.8-2.3,5.1-5.1,5.1s-5.101-2.3-5.101-5.1
	C69.358,13.102,71.659,10.802,74.458,10.802z"/>
<path fill="#FFFFFF" d="M79.358,32.302c0,1.1-0.898,2.1-2.1,2.1s-2.1-0.9-2.1-2.1c0-1.1,0.898-2.1,2.1-2.1
	S79.358,31.202,79.358,32.302z"/>
<path fill="#FFFFFF" d="M23.858,59.502c2.8,0,5.1,1.8,5.1,4c0,2.2-2.3,4-5.1,4c-2.8,0-5.1-1.8-5.1-4
	C18.758,61.202,21.058,59.502,23.858,59.502z"/>
<path fill="#FFFFFF" d="M77.758,109.602c0,4.4-2.9,7.601-4.2,11.601c-1.3,4.101,2.2,10.699-0.3,14.101s-6.2,7.101-9.7,9.601
	c-3.399,2.5-9.8-0.601-13.9,0.699c-4,1.301-7.3,3.102-11.7,3.102c-4.4,0-9.5,3.699-13.5,2.398c-4.1-1.3-4.8-9.199-8.2-11.699
	s-8.3-2.801-10.8-6.199c-2.5-3.4-3.2-7.5-4.5-11.602c-1.3-4-0.9-7.6-0.9-12c0-4.398,1.5-7.5,2.8-11.398
	c1.3-4.102-1.7-10.2,0.7-13.602c2.5-3.398,7.7-4.5,11.1-7s7.8-1.5,11.9-2.9c4-1.3,6.9-8.5,11.3-8.5s8,5.3,11.9,6.6
	c4.1,1.3,10-0.6,13.4,1.9c3.398,2.5,3,9,5.5,12.4s8.898,5,10.199,9.102C80.258,100.203,77.758,105.203,77.758,109.602z"/>
<path fill="#FFFFFF" d="M82.858,88.002c-1.898,0-3.5-1.601-3.5-3.5c0-1.9,1.602-3.5,3.5-3.5c1.9,0,3.5,1.6,3.5,3.5
	C86.358,86.502,84.858,88.002,82.858,88.002z"/>
<path fill="#FFFFFF" d="M124.159,61.802c-4.4,4.6-9-13.6-14.801-13.4c-5.899,0.2-16.5,4.2-21.101-0.1c-4.601-4.4,2.7-15.3,2.5-21.1
	c-0.2-5.8-2.601-11.2,1.8-15.8s9.602-11.3,15.4-11.4c5.898-0.2,7.199,11.5,11.8,15.9s14.601,4.3,14.8,10.2
	C134.758,31.902,128.458,57.202,124.159,61.802z"/>
</svg>
